# Blender v2.90.1 OBJ File: ''
# www.blender.org
o Cube.003
v 0.021550 77.010376 3.603241
v 0.021550 74.652847 2.484535
v 0.021550 74.652847 3.603239
v 2.379080 77.010391 -48.338894
v 0.021550 77.010391 -51.456593
v 0.021550 77.010391 -48.338894
v 2.379080 77.010376 3.603241
v 2.379080 74.652847 4.721981
v 2.379080 74.652847 3.603239
v 2.379080 77.010376 4.721981
v 0.021550 77.010376 4.721981
v 2.379080 77.010376 4.721981
v 0.021550 74.652847 4.721981
v 2.379080 74.652847 4.721981
v 0.021550 77.010376 4.721981
v 0.021550 74.652847 4.721981
v 2.379080 74.652832 48.259811
v 0.021550 22.527336 48.259796
v 0.021550 74.652832 48.259811
v 2.379080 74.652863 -51.456593
v 0.021550 74.652863 -51.456593
v 0.021550 74.652863 -48.338894
v 2.379080 74.652863 -48.338894
v 2.379080 77.010391 -51.456593
v 2.379080 20.987679 -51.456608
v 2.379080 74.652847 2.484535
v 2.379080 77.010376 2.484536
v 0.021550 77.010376 2.484536
v 0.021550 77.010361 48.259811
v 2.379080 77.010361 48.259811
v 0.021550 20.987679 -48.338909
v 2.379080 20.987679 -48.338909
v 0.021550 20.987679 -51.456608
v 0.021550 77.010361 48.134823
v 2.379080 77.010361 51.254166
v 2.379080 77.010361 48.134823
v 0.021550 74.652832 51.254166
v 2.379080 74.652832 51.254166
v 2.379080 74.652832 48.134823
v 0.021550 74.652832 48.134823
v 0.021550 77.010361 51.254166
v 2.379080 22.527336 48.134808
v 0.021550 22.527336 51.254150
v 0.021550 22.527336 48.134808
v 2.379080 22.527336 51.254150
v 2.379080 74.652832 51.254166
v 2.379080 22.527336 48.134808
v 2.379080 74.652832 48.134823
v 2.379080 22.527336 48.259796
v 2.379080 22.527336 51.254150
v -48.671181 31.058966 -48.665810
v 48.664658 31.058935 48.670029
v 48.664658 31.058966 -48.665810
v -35.003262 -38.941051 35.002087
v 34.996735 -38.941051 35.002087
v -48.671181 31.058935 48.670029
v -35.003262 -38.941036 -34.997913
v 34.996735 -38.941036 -34.997913
vt 0.832146 0.116297
vt 0.694462 0.185139
vt 0.694462 0.116297
vt 0.832146 0.322824
vt 0.969830 0.322824
vt 0.969830 0.322824
vt 0.832146 0.391666
vt 0.694462 0.460508
vt 0.694462 0.391666
vt 0.832146 0.460508
vt 0.969830 0.460508
vt 0.832146 0.460508
vt 0.556777 0.460508
vt 0.556777 0.391666
vt 0.969830 0.391666
vt 0.694462 0.460508
vt 0.832146 0.047455
vt 0.694462 0.047455
vt 0.832146 0.047455
vt 0.556777 0.460508
vt 0.694462 0.460508
vt 0.556777 0.460508
vt 0.556777 0.460508
vt 0.832146 0.185139
vt 0.694462 0.322824
vt 0.694462 0.185139
vt 0.832146 0.185139
vt 0.694462 0.185139
vt 0.694462 0.322824
vt 0.832146 0.322824
vt 0.694462 0.322824
vt 0.556777 0.322824
vt 0.694462 0.322824
vt 0.832146 0.322824
vt 0.832146 0.185139
vt 0.969830 0.322824
vt 0.694462 0.047455
vt 0.832146 0.047455
vt 0.832146 0.460508
vt 0.556777 0.322824
vt 0.694462 0.322824
vt 0.694462 0.185139
vt 0.556777 0.322824
vt 0.694462 0.185139
vt 0.977213 0.706586
vt 0.839528 0.706586
vt 0.839528 0.706586
vt 0.701844 0.844271
vt 0.701844 0.706586
vt 0.701844 0.706586
vt 0.431158 0.224631
vt 0.568842 0.224631
vt 0.568842 0.224631
vt 0.701844 0.706586
vt 0.564159 0.706586
vt 0.564159 0.706586
vt 0.701844 0.706586
vt 0.431158 0.224631
vt 0.431158 0.224631
vt 0.431158 0.637684
vt 0.431158 0.637684
vt 0.431158 0.637684
vt 0.969830 0.460508
vt 0.694462 0.460508
vt 0.694462 0.047455
vt 0.969830 0.460508
vt 0.556777 0.322824
vt 0.977213 0.706586
vt 0.839528 0.844271
vt 0.701844 0.844271
vt 0.431158 0.224631
vt 0.431158 0.637684
vt 0.445684 0.500000
vt 0.307999 0.637684
vt 0.307999 0.500000
vt 0.170315 0.775369
vt 0.170315 0.637684
vt 0.307999 0.224631
vt 0.170315 0.362316
vt 0.170315 0.224631
vt 0.170315 0.500000
vt 0.032630 0.637684
vt 0.032630 0.500000
vt 0.307999 0.362316
vt 0.445684 0.637684
vt 0.307999 0.775369
vn -1.0000 0.0000 0.0000
vn 0.0000 1.0000 0.0000
vn 1.0000 0.0000 0.0000
vn 0.0000 0.0000 1.0000
vn 0.0000 -1.0000 0.0000
vn 0.0000 0.0000 -1.0000
vn 0.0000 -0.1916 0.9815
vn -0.9815 -0.1916 -0.0000
vn 0.9815 -0.1916 -0.0000
vn 0.0000 -0.1916 -0.9815
s 1
f 1/1/1 2/2/1 3/3/1
f 4/4/2 5/5/2 6/6/2
f 7/7/3 8/8/3 9/9/3
f 10/10/4 11/11/4 12/12/4
f 9/9/5 13/13/5 3/14/5
f 1/15/2 10/10/2 7/7/2
f 8/8/4 12/12/4 14/16/4
f 15/17/4 16/18/4 11/19/4
f 13/13/4 14/16/4 16/20/4
f 17/21/6 18/22/6 19/23/6
f 5/24/6 20/25/6 21/26/6
f 6/27/1 21/26/1 22/28/1
f 23/29/3 24/30/3 4/4/3
f 23/29/3 25/31/3 20/25/3
f 2/32/5 23/29/5 26/33/5
f 26/33/3 4/4/3 27/34/3
f 28/35/1 22/28/1 2/2/1
f 27/34/2 6/6/2 28/36/2
f 28/36/2 7/7/2 27/34/2
f 26/33/5 3/14/5 2/32/5
f 27/34/3 9/9/3 26/33/3
f 15/17/1 3/3/1 13/37/1
f 16/18/1 29/38/1 11/19/1
f 14/16/5 19/23/5 16/20/5
f 12/12/3 17/21/3 14/16/3
f 11/11/2 30/39/2 12/12/2
f 31/40/5 25/31/5 32/41/5
f 20/25/6 33/42/6 21/26/6
f 22/43/4 32/41/4 23/29/4
f 21/26/1 31/44/1 22/28/1
f 34/45/2 35/46/2 36/47/2
f 35/46/4 37/48/4 38/49/4
f 36/47/3 38/49/3 39/50/3
f 40/51/1 41/52/1 34/53/1
f 42/54/5 43/55/5 44/56/5
f 37/48/4 45/57/4 38/49/4
f 40/51/1 43/58/1 37/59/1
f 46/60/3 47/61/3 48/62/3
f 1/1/1 28/35/1 2/2/1
f 4/4/2 24/30/2 5/5/2
f 7/7/3 10/10/3 8/8/3
f 10/10/4 15/63/4 11/11/4
f 9/9/5 8/8/5 13/13/5
f 1/15/2 15/63/2 10/10/2
f 8/8/4 10/10/4 12/12/4
f 15/17/4 13/37/4 16/18/4
f 13/13/4 8/8/4 14/16/4
f 17/21/6 49/64/6 18/22/6
f 5/24/6 24/30/6 20/25/6
f 6/27/1 5/24/1 21/26/1
f 23/29/3 20/25/3 24/30/3
f 23/29/3 32/41/3 25/31/3
f 2/32/5 22/43/5 23/29/5
f 26/33/3 23/29/3 4/4/3
f 28/35/1 6/27/1 22/28/1
f 27/34/2 4/4/2 6/6/2
f 28/36/2 1/15/2 7/7/2
f 26/33/5 9/9/5 3/14/5
f 27/34/3 7/7/3 9/9/3
f 15/17/1 1/1/1 3/3/1
f 16/18/1 19/65/1 29/38/1
f 14/16/5 17/21/5 19/23/5
f 12/12/3 30/39/3 17/21/3
f 11/11/2 29/66/2 30/39/2
f 31/40/5 33/67/5 25/31/5
f 20/25/6 25/31/6 33/42/6
f 22/43/4 31/40/4 32/41/4
f 21/26/1 33/42/1 31/44/1
f 34/45/2 41/68/2 35/46/2
f 35/46/4 41/69/4 37/48/4
f 36/47/3 35/46/3 38/49/3
f 40/51/1 37/59/1 41/52/1
f 42/54/5 45/57/5 43/55/5
f 37/48/4 43/70/4 45/57/4
f 40/51/1 44/71/1 43/58/1
f 46/60/3 50/72/3 47/61/3
f 51/73/2 52/74/2 53/75/2
f 52/74/7 54/76/7 55/77/7
f 56/78/8 57/79/8 54/80/8
f 58/81/5 54/82/5 57/83/5
f 53/75/9 55/77/9 58/81/9
f 51/84/10 58/81/10 57/79/10
f 51/73/2 56/85/2 52/74/2
f 52/74/7 56/86/7 54/76/7
f 56/78/8 51/84/8 57/79/8
f 58/81/5 55/77/5 54/82/5
f 53/75/9 52/74/9 55/77/9
f 51/84/10 53/75/10 58/81/10
