# Blender v2.90.0 OBJ File: 'tvblend.blend'
# www.blender.org
o Cube.006_Cube.008
v -355.622223 -275.994965 273.298828
v -355.622223 -584.455261 273.298828
v -355.622223 -275.994965 73.298843
v -355.622223 -584.455261 73.298843
v -920.587280 -275.994965 73.298843
v -920.587280 -584.455261 273.298828
v -920.587341 -584.455261 73.298843
v -920.587341 -275.994965 273.298828
v -895.225037 -275.994965 73.298843
v -895.225037 -584.455261 273.298828
v -895.225098 -584.455261 73.298843
v -895.225098 -275.994965 273.298828
v -379.197113 -275.994965 73.298843
v -379.197113 -584.455261 273.298828
v -379.197113 -584.455261 73.298843
v -379.197113 -275.994965 273.298828
v -899.857605 -372.082458 250.171814
v -899.857605 -303.518127 79.358772
v -899.857605 -584.455261 273.298828
v -374.003174 -303.518127 79.358772
v -374.003174 -584.455261 273.298828
v -374.003174 -372.082458 250.171799
v -899.857605 -584.455261 73.298820
v -899.857605 -275.994965 73.298820
v -899.857605 -584.455261 273.298798
v -374.003174 -275.994965 73.298820
v -374.003174 -584.455261 273.298798
v -374.003174 -584.455261 73.298820
v -899.857605 -556.436462 272.499329
v -374.003174 -556.436462 272.499329
v -614.343323 -556.436462 272.499329
v -614.343323 -303.518127 79.358772
v -614.343323 -584.455261 273.298828
v -614.343384 -372.082458 250.171799
v -659.200989 -372.082458 250.171814
v -659.200928 -303.518127 79.358772
v -659.200928 -584.455261 273.298828
v -659.200928 -556.436462 272.499329
v -614.343323 -556.436462 272.499329
v -614.343323 -303.518127 79.358772
v -614.343323 -584.455261 273.298828
v -614.343384 -372.082458 250.171799
v -658.442627 -584.455261 73.298820
v -658.442627 -275.994965 73.298820
v -658.442627 -584.455261 273.298798
v -614.422852 -275.994965 73.298820
v -614.422852 -584.455261 273.298798
v -614.422852 -584.455261 73.298820
v -899.857605 -372.082458 250.171814
v -374.003174 -372.082458 250.171799
v -659.200989 -372.082458 250.171814
v -614.343384 -372.082458 250.171799
v -899.857605 -372.082458 250.171814
v -374.003174 -372.082458 250.171799
v -659.200989 -372.082458 250.171814
v -614.343384 -372.082458 250.171799
v -899.857605 -372.082458 250.171814
v -374.003174 -372.082458 250.171799
v -659.200989 -372.082458 250.171814
v -614.343384 -372.082458 250.171799
v -374.003174 -372.082458 250.171799
v -614.343384 -372.082458 250.171799
v -899.857605 -372.082458 250.171814
v -659.200989 -372.082458 250.171814
v -614.343384 -372.082458 250.171799
v -374.003174 -357.947662 250.171799
v -614.343384 -357.947662 250.171799
v -899.857605 -357.947662 250.171814
v -659.200989 -357.947662 250.171814
v -614.343384 -357.947662 250.171799
v 920.265259 -275.994965 70.838089
v 920.265259 -584.455200 70.838089
v -919.366638 -275.994965 70.838104
v -919.366638 -584.455200 70.838104
v 920.265259 -275.994965 -129.161926
v 920.265259 -584.455200 -129.161926
v -919.366638 -275.994965 -129.161896
v -919.366638 -584.455200 -129.161896
v 920.265259 754.775085 70.838089
v 920.265259 -276.384796 70.838089
v -919.366638 754.775085 70.838104
v -919.366638 -276.384796 70.838104
v 920.265259 754.775085 -129.161926
v 920.265259 -276.384796 -129.161926
v -919.366638 754.775085 -129.161896
v -919.366638 -276.384796 -129.161896
v -356.482788 -372.082458 250.171799
v -356.482788 -303.518127 79.358788
v -356.482788 -584.455200 273.298828
v 368.282715 -303.518127 79.358772
v 368.282715 -584.455200 273.298828
v 368.282623 -372.082458 250.171799
v -356.482788 -584.455200 73.298843
v -356.482788 -275.994965 73.298843
v -356.482788 -584.455200 273.298798
v 368.282715 -275.994965 73.298828
v 368.282715 -584.455200 273.298798
v 368.282623 -584.455200 73.298828
v -356.482788 -556.436462 272.499329
v 368.282715 -556.436462 272.499329
v 37.030819 -556.436462 272.499329
v 37.030815 -303.518127 79.358780
v 37.030819 -584.455200 273.298828
v 37.030819 -372.082458 250.171799
v -24.794758 -372.082458 250.171799
v -24.794762 -303.518127 79.358780
v -24.794758 -584.455200 273.298828
v -24.794758 -556.436462 272.499329
v 37.030819 -556.436462 272.499329
v 37.030815 -303.518127 79.358780
v 37.030819 -584.455200 273.298828
v 37.030819 -372.082458 250.171799
v -23.749569 -584.455200 73.298836
v -23.749569 -275.994965 73.298836
v -23.749565 -584.455200 273.298798
v 36.921276 -275.994965 73.298836
v 36.921280 -584.455200 273.298798
v 36.921276 -584.455200 73.298836
v -356.482788 -372.082458 250.171799
v 368.282623 -372.082458 250.171799
v -24.794758 -372.082458 250.171799
v 37.030819 -372.082458 250.171799
v -356.482788 -372.082458 250.171799
v 368.282623 -372.082458 250.171799
v -24.794758 -372.082458 250.171799
v 37.030819 -372.082458 250.171799
v -356.482788 -372.082458 250.171799
v 368.282623 -372.082458 250.171799
v -24.794758 -372.082458 250.171799
v 37.030819 -372.082458 250.171799
v 368.282623 -372.082458 250.171799
v 37.030819 -372.082458 250.171799
v -356.482788 -372.082458 250.171799
v -24.794758 -372.082458 250.171799
v 37.030819 -372.082458 250.171799
v 368.282623 -357.947662 250.171799
v 37.030819 -357.947662 250.171799
v -356.482788 -357.947662 250.171799
v -24.794758 -357.947662 250.171799
v 37.030819 -357.947662 250.171799
v 920.265259 -275.994965 273.298828
v 920.265259 -584.455200 273.298828
v 920.265259 -275.994965 73.298836
v 920.265259 -584.455200 73.298836
v 368.282715 -275.994965 73.298836
v 368.282715 -584.455200 273.298828
v 368.282623 -584.455200 73.298836
v 368.282623 -275.994965 273.298828
v 393.062103 -275.994965 73.298836
v 393.062103 -584.455200 273.298828
v 393.062103 -584.455200 73.298836
v 393.062103 -275.994965 273.298828
v 897.232178 -275.994965 73.298836
v 897.232178 -584.455200 273.298828
v 897.232178 -584.455200 73.298836
v 897.232178 -275.994965 273.298828
v 388.536011 -372.082458 250.171783
v 388.536011 -303.518127 79.358757
v 388.536011 -584.455200 273.298798
v 902.306763 -303.518127 79.358757
v 902.306763 -584.455200 273.298798
v 902.306763 -372.082458 250.171768
v 388.536011 -584.455200 73.298813
v 388.536011 -275.994965 73.298813
v 388.536011 -584.455200 273.298798
v 902.306763 -275.994965 73.298813
v 902.306763 -584.455200 273.298798
v 902.306763 -584.455200 73.298813
v 388.536011 -556.436462 272.499329
v 902.306763 -556.436462 272.499329
v 667.489502 -556.436462 272.499329
v 667.489502 -303.518127 79.358757
v 667.489502 -584.455200 273.298798
v 667.489319 -372.082458 250.171768
v 623.662537 -372.082458 250.171783
v 623.662781 -303.518127 79.358757
v 623.662781 -584.455200 273.298798
v 623.662781 -556.436462 272.499329
v 667.489502 -556.436462 272.499329
v 667.489502 -303.518127 79.358757
v 667.489502 -584.455200 273.298798
v 667.489319 -372.082458 250.171768
v 624.403442 -584.455200 73.298813
v 624.403442 -275.994965 73.298813
v 624.403442 -584.455200 273.298798
v 667.411621 -275.994965 73.298813
v 667.411621 -584.455200 273.298798
v 667.411621 -584.455200 73.298813
v 388.536011 -372.082458 250.171783
v 902.306763 -372.082458 250.171768
v 623.662537 -372.082458 250.171783
v 667.489319 -372.082458 250.171768
v 388.536011 -372.082458 250.171783
v 902.306763 -372.082458 250.171768
v 623.662537 -372.082458 250.171783
v 667.489319 -372.082458 250.171768
v 388.536011 -372.082458 250.171783
v 902.306763 -372.082458 250.171768
v 623.662537 -372.082458 250.171783
v 667.489319 -372.082458 250.171768
v 902.306763 -372.082458 250.171768
v 667.489319 -372.082458 250.171768
v 388.536011 -372.082458 250.171783
v 623.662537 -372.082458 250.171783
v 667.489319 -372.082458 250.171768
v 902.306763 -357.947662 250.171768
v 667.489319 -357.947662 250.171768
v 388.536011 -357.947662 250.171783
v 623.662537 -357.947662 250.171783
v 667.489319 -357.947662 250.171768
vt 0.625000 0.246870
vt 0.375000 0.250000
vt 0.375000 0.246870
vt 0.625000 0.250000
vt 0.375000 0.500000
vt 0.875000 0.571645
vt 0.625000 0.575013
vt 0.625000 0.571645
vt 0.375000 0.571645
vt 0.125000 0.575013
vt 0.125000 0.571645
vt 0.375000 0.575013
vt 0.375000 0.174987
vt 0.625000 0.174987
vt 0.375000 0.503130
vt 0.125000 0.503130
vt 0.375000 0.178355
vt 0.875000 0.500000
vt 0.625000 0.503130
vt 0.625000 0.500000
vt 0.125000 0.500000
vt 0.875000 0.628431
vt 0.625000 0.673506
vt 0.625000 0.628431
vt 0.375000 0.628289
vt 0.125000 0.673506
vt 0.125000 0.628289
vt 0.625000 0.129956
vt 0.375000 0.174987
vt 0.375000 0.129956
vt 0.407983 0.620029
vt 0.625000 0.620029
vt 0.875000 0.620029
vt 0.625000 0.620029
vt 0.875000 0.620029
vt 0.875000 0.575013
vt 0.625000 0.575013
vt 0.407983 0.575013
vt 0.375000 0.620029
vt 0.375000 0.575013
vt 0.407983 0.628431
vt 0.375000 0.673506
vt 0.375000 0.628431
vt 0.375000 0.620029
vt 0.407983 0.620029
vt 0.625000 0.076494
vt 0.375000 0.121711
vt 0.375000 0.076494
vt 0.375000 0.620044
vt 0.125000 0.620044
vt 0.375000 0.575013
vt 0.125000 0.575013
vt 0.625000 0.121711
vt 0.000000 0.000000
vt 0.000000 0.000000
vt 0.000000 0.000000
vt 0.625000 0.628431
vt 0.625000 0.620029
vt 0.625000 0.673506
vt 0.625000 0.628431
vt 0.625000 0.620029
vt 0.625000 0.673506
vt 0.625000 0.628431
vt 0.625000 0.620029
vt 0.625000 0.673506
vt 0.625000 0.628431
vt 0.625000 0.620029
vt 0.625000 0.673506
vt 0.625000 0.620029
vt 0.625000 0.575013
vt 0.625000 0.620029
vt 0.625000 0.628431
vt 0.625000 0.575013
vt 0.875000 0.500000
vt 0.625000 0.750000
vt 0.625000 0.500000
vt 0.375000 1.000000
vt 0.375000 0.750000
vt 0.625000 0.000000
vt 0.375000 0.250000
vt 0.375000 0.000000
vt 0.375000 0.500000
vt 0.125000 0.750000
vt 0.125000 0.500000
vt 0.625000 0.250000
vt 0.875000 0.500000
vt 0.625000 0.750000
vt 0.625000 0.500000
vt 0.375000 1.000000
vt 0.375000 0.750000
vt 0.625000 0.000000
vt 0.375000 0.250000
vt 0.375000 0.000000
vt 0.375000 0.500000
vt 0.125000 0.750000
vt 0.125000 0.500000
vt 0.625000 0.250000
vt 0.875000 0.628431
vt 0.625000 0.673506
vt 0.625000 0.628431
vt 0.375000 0.628289
vt 0.125000 0.673506
vt 0.125000 0.628289
vt 0.625000 0.129956
vt 0.375000 0.174987
vt 0.375000 0.129956
vt 0.407983 0.620029
vt 0.625000 0.620029
vt 0.875000 0.620029
vt 0.625000 0.620029
vt 0.875000 0.620029
vt 0.875000 0.575013
vt 0.625000 0.575013
vt 0.407983 0.575013
vt 0.375000 0.620029
vt 0.375000 0.575013
vt 0.407983 0.628431
vt 0.375000 0.673506
vt 0.375000 0.628431
vt 0.375000 0.620029
vt 0.407983 0.620029
vt 0.625000 0.076494
vt 0.375000 0.121711
vt 0.375000 0.076494
vt 0.375000 0.620044
vt 0.125000 0.620044
vt 0.375000 0.575013
vt 0.125000 0.575013
vt 0.625000 0.121711
vt 0.000000 0.000000
vt 0.000000 0.000000
vt 0.000000 0.000000
vt 0.625000 0.628431
vt 0.625000 0.620029
vt 0.625000 0.673506
vt 0.625000 0.628431
vt 0.625000 0.620029
vt 0.625000 0.673506
vt 0.625000 0.628431
vt 0.625000 0.620029
vt 0.625000 0.673506
vt 0.625000 0.628431
vt 0.625000 0.620029
vt 0.625000 0.673506
vt 0.625000 0.620029
vt 0.625000 0.575013
vt 0.625000 0.620029
vt 0.625000 0.628431
vt 0.625000 0.575013
vt 0.625000 0.246870
vt 0.375000 0.250000
vt 0.375000 0.246870
vt 0.625000 0.250000
vt 0.375000 0.500000
vt 0.875000 0.571645
vt 0.625000 0.575013
vt 0.625000 0.571645
vt 0.375000 0.571645
vt 0.125000 0.575013
vt 0.125000 0.571645
vt 0.375000 0.575013
vt 0.375000 0.174987
vt 0.625000 0.174987
vt 0.375000 0.503130
vt 0.125000 0.503130
vt 0.375000 0.178355
vt 0.875000 0.500000
vt 0.625000 0.503130
vt 0.625000 0.500000
vt 0.125000 0.500000
vt 0.875000 0.628431
vt 0.625000 0.673506
vt 0.625000 0.628431
vt 0.375000 0.628289
vt 0.125000 0.673506
vt 0.125000 0.628289
vt 0.625000 0.129956
vt 0.375000 0.174987
vt 0.375000 0.129956
vt 0.407983 0.620029
vt 0.625000 0.620029
vt 0.875000 0.620029
vt 0.625000 0.620029
vt 0.875000 0.620029
vt 0.875000 0.575013
vt 0.625000 0.575013
vt 0.407983 0.575013
vt 0.375000 0.620029
vt 0.375000 0.575013
vt 0.407983 0.628431
vt 0.375000 0.673506
vt 0.375000 0.628431
vt 0.375000 0.620029
vt 0.407983 0.620029
vt 0.625000 0.076494
vt 0.375000 0.121711
vt 0.375000 0.076494
vt 0.375000 0.620044
vt 0.125000 0.620044
vt 0.375000 0.575013
vt 0.125000 0.575013
vt 0.625000 0.121711
vt 0.000000 0.000000
vt 0.000000 0.000000
vt 0.000000 0.000000
vt 0.625000 0.628431
vt 0.625000 0.620029
vt 0.625000 0.673506
vt 0.625000 0.628431
vt 0.625000 0.620029
vt 0.625000 0.673506
vt 0.625000 0.628431
vt 0.625000 0.620029
vt 0.625000 0.673506
vt 0.625000 0.628431
vt 0.625000 0.620029
vt 0.625000 0.673506
vt 0.625000 0.620029
vt 0.625000 0.575013
vt 0.625000 0.620029
vt 0.625000 0.628431
vt 0.625000 0.575013
vt 0.875000 0.575013
vt 0.625000 0.178355
vt 0.875000 0.503130
vt 0.875000 0.673506
vt 0.375000 0.673506
vt 0.625000 0.174987
vt 0.407983 0.673506
vt 0.000000 0.000000
vt 0.625000 0.673506
vt 0.625000 0.620029
vt 0.875000 0.750000
vt 0.625000 1.000000
vt 0.875000 0.750000
vt 0.625000 1.000000
vt 0.875000 0.673506
vt 0.375000 0.673506
vt 0.625000 0.174987
vt 0.407983 0.673506
vt 0.000000 0.000000
vt 0.625000 0.673506
vt 0.625000 0.620029
vt 0.875000 0.575013
vt 0.625000 0.178355
vt 0.875000 0.503130
vt 0.875000 0.673506
vt 0.375000 0.673506
vt 0.625000 0.174987
vt 0.407983 0.673506
vt 0.000000 0.000000
vt 0.625000 0.673506
vt 0.625000 0.620029
vn 0.0000 0.0000 -1.0000
vn 1.0000 0.0000 0.0000
vn 0.0000 1.0000 0.0000
vn 0.0000 -1.0000 0.0000
vn 0.0000 0.0000 1.0000
vn -1.0000 0.0000 -0.0000
vn 0.0000 0.9280 0.3725
vn 0.0000 0.1202 0.9927
vn 0.0000 0.0285 0.9996
vn -1.0000 -0.0027 -0.0011
vn 1.0000 -0.0000 -0.0004
vn -1.0000 -0.0037 -0.0015
vn 1.0000 -0.0001 -0.0005
vn -1.0000 -0.0026 -0.0011
vn -1.0000 -0.0004 -0.0038
vn 1.0000 -0.0003 -0.0001
vn -1.0000 -0.0006 -0.0052
vn 1.0000 -0.0004 -0.0002
vn -1.0000 -0.0004 -0.0037
s off
f 13/1/1 4/2/1 15/3/1
f 3/4/2 2/5/2 4/2/2
f 9/6/3 8/7/3 12/8/3
f 10/9/4 7/10/4 11/11/4
f 12/8/5 6/12/5 10/9/5
f 7/13/6 8/7/6 5/14/6
f 14/15/4 11/11/4 15/16/4
f 5/14/1 11/17/1 7/13/1
f 3/18/3 16/19/3 1/20/3
f 2/5/4 15/16/4 4/21/4
f 1/20/5 14/15/5 2/5/5
f 36/22/7 17/23/7 35/24/7
f 45/25/4 23/26/4 43/27/4
f 46/28/1 28/29/1 48/30/1
f 35/24/8 39/31/8 42/32/8
f 40/33/5 34/34/5 32/35/5
f 20/36/7 34/34/7 22/37/7
f 30/38/9 33/39/9 21/40/9
f 38/41/9 19/42/9 37/43/9
f 38/41/9 41/44/9 39/31/9
f 31/45/5 41/44/5 33/39/5
f 35/24/7 40/33/7 36/22/7
f 34/34/5 39/31/5 31/45/5
f 24/46/1 43/47/1 23/48/1
f 47/49/4 43/27/4 48/50/4
f 27/51/4 48/50/4 28/52/4
f 44/53/1 48/30/1 43/47/1
f 43/54/10 35/24/10 36/22/10
f 48/55/11 42/32/11 41/56/11
f 42/32/5 51/57/5 52/58/5
f 35/24/5 49/59/5 51/57/5
f 52/58/5 55/60/5 56/61/5
f 51/57/5 53/62/5 55/60/5
f 56/61/5 59/63/5 60/64/5
f 55/60/5 57/65/5 59/63/5
f 60/64/5 64/66/5 65/67/5
f 59/63/5 63/68/5 64/66/5
f 22/37/5 62/69/5 61/70/5
f 64/66/1 70/71/1 65/67/1
f 63/68/1 69/72/1 64/66/1
f 62/69/1 66/73/1 61/70/1
f 75/74/3 73/75/3 71/76/3
f 73/75/6 78/77/6 74/78/6
f 77/79/1 76/80/1 78/81/1
f 72/82/4 78/83/4 76/84/4
f 71/76/5 74/78/5 72/82/5
f 75/85/2 72/82/2 76/80/2
f 83/86/3 81/87/3 79/88/3
f 81/87/6 86/89/6 82/90/6
f 85/91/1 84/92/1 86/93/1
f 80/94/4 86/95/4 84/96/4
f 79/88/5 82/90/5 80/94/5
f 83/97/2 80/94/2 84/92/2
f 106/98/7 87/99/7 105/100/7
f 115/101/4 93/102/4 113/103/4
f 116/104/1 98/105/1 118/106/1
f 105/100/8 109/107/8 112/108/8
f 110/109/5 104/110/5 102/111/5
f 90/112/7 104/110/7 92/113/7
f 100/114/9 103/115/9 91/116/9
f 108/117/9 89/118/9 107/119/9
f 108/117/9 111/120/9 109/107/9
f 101/121/5 111/120/5 103/115/5
f 105/100/7 110/109/7 106/98/7
f 104/110/5 109/107/5 101/121/5
f 94/122/1 113/123/1 93/124/1
f 117/125/4 113/103/4 118/126/4
f 97/127/4 118/126/4 98/128/4
f 114/129/1 118/106/1 113/123/1
f 113/130/12 105/100/12 106/98/12
f 118/131/13 112/108/13 111/132/13
f 112/108/5 121/133/5 122/134/5
f 105/100/5 119/135/5 121/133/5
f 122/134/5 125/136/5 126/137/5
f 121/133/5 123/138/5 125/136/5
f 126/137/5 129/139/5 130/140/5
f 125/136/5 127/141/5 129/139/5
f 130/140/5 134/142/5 135/143/5
f 129/139/5 133/144/5 134/142/5
f 92/113/5 132/145/5 131/146/5
f 134/142/1 140/147/1 135/143/1
f 133/144/1 139/148/1 134/142/1
f 132/145/1 136/149/1 131/146/1
f 153/150/1 144/151/1 155/152/1
f 143/153/2 142/154/2 144/151/2
f 149/155/3 148/156/3 152/157/3
f 150/158/4 147/159/4 151/160/4
f 152/157/5 146/161/5 150/158/5
f 147/162/6 148/156/6 145/163/6
f 154/164/4 151/160/4 155/165/4
f 145/163/1 151/166/1 147/162/1
f 143/167/3 156/168/3 141/169/3
f 142/154/4 155/165/4 144/170/4
f 141/169/5 154/164/5 142/154/5
f 176/171/7 157/172/7 175/173/7
f 185/174/4 163/175/4 183/176/4
f 186/177/1 168/178/1 188/179/1
f 175/173/8 179/180/8 182/181/8
f 180/182/5 174/183/5 172/184/5
f 160/185/7 174/183/7 162/186/7
f 170/187/9 173/188/9 161/189/9
f 178/190/9 159/191/9 177/192/9
f 178/190/9 181/193/9 179/180/9
f 171/194/5 181/193/5 173/188/5
f 175/173/7 180/182/7 176/171/7
f 174/183/5 179/180/5 171/194/5
f 164/195/1 183/196/1 163/197/1
f 187/198/4 183/176/4 188/199/4
f 167/200/4 188/199/4 168/201/4
f 184/202/1 188/179/1 183/196/1
f 183/203/14 175/173/14 176/171/14
f 188/204/11 182/181/11 181/205/11
f 182/181/5 191/206/5 192/207/5
f 175/173/5 189/208/5 191/206/5
f 192/207/5 195/209/5 196/210/5
f 191/206/5 193/211/5 195/209/5
f 196/210/5 199/212/5 200/213/5
f 195/209/5 197/214/5 199/212/5
f 200/213/5 204/215/5 205/216/5
f 199/212/5 203/217/5 204/215/5
f 162/186/5 202/218/5 201/219/5
f 204/215/1 210/220/1 205/216/1
f 203/217/1 209/221/1 204/215/1
f 202/218/1 206/222/1 201/219/1
f 13/1/1 3/4/1 4/2/1
f 3/4/2 1/20/2 2/5/2
f 9/6/3 5/223/3 8/7/3
f 10/9/4 6/12/4 7/10/4
f 12/8/5 8/7/5 6/12/5
f 7/13/6 6/12/6 8/7/6
f 14/15/4 10/9/4 11/11/4
f 5/14/1 9/224/1 11/17/1
f 3/18/3 13/225/3 16/19/3
f 2/5/4 14/15/4 15/16/4
f 1/20/5 16/19/5 14/15/5
f 36/22/7 18/226/7 17/23/7
f 45/25/4 25/227/4 23/26/4
f 46/28/1 26/228/1 28/29/1
f 35/24/8 38/41/8 39/31/8
f 40/33/5 42/32/5 34/34/5
f 20/36/7 32/35/7 34/34/7
f 30/38/9 31/45/9 33/39/9
f 38/41/9 29/229/9 19/42/9
f 38/41/9 37/43/9 41/44/9
f 31/45/5 39/31/5 41/44/5
f 35/24/7 42/32/7 40/33/7
f 34/34/5 42/32/5 39/31/5
f 24/46/1 44/53/1 43/47/1
f 47/49/4 45/25/4 43/27/4
f 27/51/4 47/49/4 48/50/4
f 44/53/1 46/28/1 48/30/1
f 43/54/15 37/230/15 35/24/15
f 48/55/16 40/33/16 42/32/16
f 42/32/5 35/24/5 51/57/5
f 35/24/5 17/23/5 49/59/5
f 52/58/5 51/57/5 55/60/5
f 51/57/5 49/59/5 53/62/5
f 56/61/5 55/60/5 59/63/5
f 55/60/5 53/62/5 57/65/5
f 60/64/5 59/63/5 64/66/5
f 59/63/5 57/65/5 63/68/5
f 22/37/5 34/34/5 62/69/5
f 64/66/1 69/72/1 70/71/1
f 63/68/1 68/231/1 69/72/1
f 62/69/1 67/232/1 66/73/1
f 75/74/3 77/233/3 73/75/3
f 73/75/6 77/234/6 78/77/6
f 77/79/1 75/85/1 76/80/1
f 72/82/4 74/78/4 78/83/4
f 71/76/5 73/75/5 74/78/5
f 75/85/2 71/76/2 72/82/2
f 83/86/3 85/235/3 81/87/3
f 81/87/6 85/236/6 86/89/6
f 85/91/1 83/97/1 84/92/1
f 80/94/4 82/90/4 86/95/4
f 79/88/5 81/87/5 82/90/5
f 83/97/2 79/88/2 80/94/2
f 106/98/7 88/237/7 87/99/7
f 115/101/4 95/238/4 93/102/4
f 116/104/1 96/239/1 98/105/1
f 105/100/8 108/117/8 109/107/8
f 110/109/5 112/108/5 104/110/5
f 90/112/7 102/111/7 104/110/7
f 100/114/9 101/121/9 103/115/9
f 108/117/9 99/240/9 89/118/9
f 108/117/9 107/119/9 111/120/9
f 101/121/5 109/107/5 111/120/5
f 105/100/7 112/108/7 110/109/7
f 104/110/5 112/108/5 109/107/5
f 94/122/1 114/129/1 113/123/1
f 117/125/4 115/101/4 113/103/4
f 97/127/4 117/125/4 118/126/4
f 114/129/1 116/104/1 118/106/1
f 113/130/17 107/241/17 105/100/17
f 118/131/18 110/109/18 112/108/18
f 112/108/5 105/100/5 121/133/5
f 105/100/5 87/99/5 119/135/5
f 122/134/5 121/133/5 125/136/5
f 121/133/5 119/135/5 123/138/5
f 126/137/5 125/136/5 129/139/5
f 125/136/5 123/138/5 127/141/5
f 130/140/5 129/139/5 134/142/5
f 129/139/5 127/141/5 133/144/5
f 92/113/5 104/110/5 132/145/5
f 134/142/1 139/148/1 140/147/1
f 133/144/1 138/242/1 139/148/1
f 132/145/1 137/243/1 136/149/1
f 153/150/1 143/153/1 144/151/1
f 143/153/2 141/169/2 142/154/2
f 149/155/3 145/244/3 148/156/3
f 150/158/4 146/161/4 147/159/4
f 152/157/5 148/156/5 146/161/5
f 147/162/6 146/161/6 148/156/6
f 154/164/4 150/158/4 151/160/4
f 145/163/1 149/245/1 151/166/1
f 143/167/3 153/246/3 156/168/3
f 142/154/4 154/164/4 155/165/4
f 141/169/5 156/168/5 154/164/5
f 176/171/7 158/247/7 157/172/7
f 185/174/4 165/248/4 163/175/4
f 186/177/1 166/249/1 168/178/1
f 175/173/8 178/190/8 179/180/8
f 180/182/5 182/181/5 174/183/5
f 160/185/7 172/184/7 174/183/7
f 170/187/9 171/194/9 173/188/9
f 178/190/9 169/250/9 159/191/9
f 178/190/9 177/192/9 181/193/9
f 171/194/5 179/180/5 181/193/5
f 175/173/7 182/181/7 180/182/7
f 174/183/5 182/181/5 179/180/5
f 164/195/1 184/202/1 183/196/1
f 187/198/4 185/174/4 183/176/4
f 167/200/4 187/198/4 188/199/4
f 184/202/1 186/177/1 188/179/1
f 183/203/19 177/251/19 175/173/19
f 188/204/16 180/182/16 182/181/16
f 182/181/5 175/173/5 191/206/5
f 175/173/5 157/172/5 189/208/5
f 192/207/5 191/206/5 195/209/5
f 191/206/5 189/208/5 193/211/5
f 196/210/5 195/209/5 199/212/5
f 195/209/5 193/211/5 197/214/5
f 200/213/5 199/212/5 204/215/5
f 199/212/5 197/214/5 203/217/5
f 162/186/5 174/183/5 202/218/5
f 204/215/1 209/221/1 210/220/1
f 203/217/1 208/252/1 209/221/1
f 202/218/1 207/253/1 206/222/1
l 22 50
l 50 54
l 54 58
l 92 120
l 120 124
l 124 128
l 162 190
l 190 194
l 194 198
